<svg xmlns="http://www.w3.org/2000/svg" xmlns:xlink="http://www.w3.org/1999/xlink" width="927.335" height="1024" viewBox="0 0 927.335 1024"><defs><linearGradient id="a" x1="0.5" x2="0.5" y2="1" gradientUnits="objectBoundingBox"><stop offset="0" stop-color="#00bb70"/><stop offset="1" stop-color="#00c2c2"/></linearGradient></defs><g transform="translate(-48.249)"><path d="M971.165,647.6c-8.561-43.774-27.512-83.375-52.337-119.966-7.9-11.64-8.392-19.107-.293-31.063,26.519-39.15,46.216-81.557,54.047-128.762C986.9,281.523,946.418,213.086,863.61,183.9c-44.051-15.528-89.567-19.513-135.865-16.547-16.754,1.073-16.654,1.331-24.444-13.769-23.26-45.082-51.009-86.694-91.977-117.962-23.135-17.657-48.64-29.978-77.75-34.061A14.485,14.485,0,0,1,530,0H496c-11.46,3.172-23.219,5.541-34.329,9.657-47.212,17.49-81.256,51.2-109.6,91.322C312.492,157,288.7,220.024,272.32,286.04c-5.845,23.55-9.636,47.606-14.7,71.361-.775,3.638-2.481,7.943-5.2,10.17-41.917,34.282-80.565,71.82-114.37,113.9-1.042-.232-1.9-.164-2.127-.51-27.738-41.833-49.286-86.125-53-137.18-2.18-29.925,4.866-57.493,22.869-81.9,8.845-11.992,8.916-15.571.723-28.682-10.1-16.166-7.158-35.872,7.131-47.734,13.724-11.393,34.686-10.814,47.618,1.315,13.412,12.58,15.256,32.922,4.451,48.232-2.093,2.965-4.588,5.913-5.68,9.265-2.7,8.286-.152,15.35,7.418,19.716,7.51,4.332,14.99,3.224,20.926-3.135,16.176-17.328,21.564-38.053,17.232-61.045-7.68-40.753-48.773-65.533-88.718-53.954-38.943,11.288-60.615,54.559-45.747,92.406,2.483,6.32,2.127,10.665-1.28,16.393-26.327,44.252-26.049,91.188-12.784,139.1,10.855,39.207,29.115,75.034,51.95,108.49,4.9,7.183,5.06,11.935.165,19.183-27.813,41.182-49.508,85.11-57.745,134.751C37.05,742.969,79.2,812.489,162.737,840.587c43,14.463,87.1,18.6,132.043,16.021,18.7-1.071,18.561-1.3,26.853,14.923,23.133,45.262,51.685,86.339,92.732,117.39,23.18,17.536,48.886,29.643,78.022,33.587A15.263,15.263,0,0,1,496,1024h32c45.513-7.567,83.434-29.544,113.31-63.9,18.466-21.234,33.867-45.173,50.121-68.266a102.49,102.49,0,0,0,12.546-23.788c3.9-10.766,10.463-12.874,21.172-11.925a344.747,344.747,0,0,0,111.107-8.169c31.119-7.433,60.271-19.483,84.9-40.338C971.533,764.966,983.335,709.82,971.165,647.6ZM876.373,226.5c49.95,26.441,72.715,75.877,62.961,134.8-7.317,44.2-26.9,83.18-53.107,123.15-1.542-3.065-2.22-5.312-3.587-7-32.186-39.761-68.83-75.028-108.132-107.671-3.716-3.087-7.22-8.173-7.985-12.8-8.381-50.68-20.945-100.213-38.972-148.337-.684-1.825-1.137-3.736-2.185-7.234C778.594,198.72,829.417,201.648,876.373,226.5Zm-9.835,285.4a662.356,662.356,0,0,1-90.2,95.425V416.617A657.428,657.428,0,0,1,866.538,511.9ZM693.962,215.969c10.234,36.088,21.1,72,31.648,108a29.228,29.228,0,0,1,.841,5.69l-163.7-94.441a42.447,42.447,0,0,1,7.1-2.746c35.808-8.734,71.668-17.26,107.465-26.038C686.221,204.246,691.269,206.474,693.962,215.969Zm-247.3-161.9c49.375-31.08,104.685-25.237,152.054,15.346,32.734,28.044,55.618,63.31,75.621,102.632-9.619,1.883-18.7,3.021-27.4,5.473-42.209,11.891-84.281,24.269-126.514,36.072-5.028,1.406-11.317,1.926-16.052.2-48.563-17.717-97.932-32.27-149.114-40.215-1.557-.242-3.028-1.039-5.347-1.865C373.923,125.122,401.638,82.41,446.658,54.071ZM298.3,325.207c11.076-37.549,22.161-75.1,33.675-112.514.867-2.818,5.247-6.872,7.532-6.592,42.308,5.2,83.321,15.892,121.972,29L298.222,329.317A9.455,9.455,0,0,1,298.3,325.207ZM283.368,429.439c1.21-13.594,2.59-27.19,4.548-40.69a16.12,16.12,0,0,1,5.485-9.584,941.947,941.947,0,0,1,212.06-122.62,18.646,18.646,0,0,1,12.98,0A934.886,934.886,0,0,1,729.76,378.45c3.2,2.453,6.128,7.184,6.485,11.1,3.69,40.434,6.824,80.919,10.154,121.9-3.308,40.961-6.5,82.108-10.176,123.211a16.566,16.566,0,0,1-5.94,10.357A940.691,940.691,0,0,1,518.169,767.544a17.3,17.3,0,0,1-12.044.049A944.958,944.958,0,0,1,293.171,644.536a14.684,14.684,0,0,1-5.213-8.7A921.929,921.929,0,0,1,283.368,429.439Zm-35.611-13.016v190.92a672.989,672.989,0,0,1-90.146-95.331C184.359,476.776,215.025,445.346,247.757,416.423Zm39.816,406.435c-39.542,1.645-78.449-1.592-116.106-14.852-62.654-22.062-94.14-70.36-87.661-136.367,4.741-48.307,26.616-89.9,51.819-128.883,25.743,26.416,50.719,52.691,76.469,78.182,12.277,12.153,26.182,22.646,39,34.283,2.946,2.676,5.775,6.742,6.389,10.536,8.374,51.7,21.128,102.214,39.822,151.183a41.98,41.98,0,0,1,1.107,5C294.513,822.278,291.049,822.713,287.573,822.858Zm43.839-12.091c-10.812-37.3-22.056-74.482-33.083-111.724a22.432,22.432,0,0,1-.56-4.772l164.612,95.01c-19.355,5.407-39.928,11.751-60.812,16.812-19.041,4.615-38.437,7.759-57.641,11.722C337.491,819.144,333.5,817.984,331.412,810.767ZM584.074,965.562c-51.912,35.919-109.833,31.315-159.494-11.808-32.264-28.017-55.037-62.947-74.777-101.974,9.306-1.8,18.073-2.875,26.481-5.23,41.9-11.734,83.775-23.577,125.484-35.969,7.443-2.212,13.651-2.539,21.01.263,47.375,18.043,95.995,31.649,146.149,39.5a55.349,55.349,0,0,1,5.361,1.566C651.48,896.455,625.255,937.068,584.074,965.562ZM722.049,714.908c-9.688,32.092-19.85,64.04-29.466,96.153-1.99,6.645-5.584,8.276-11.7,6.791q-58.541-14.223-117.078-28.465c-1.176-.287-2.163-1.353-1.139-.683l163.839-94.473C725.234,700.265,724.208,707.758,722.049,714.908Zm167.162,74.273c-49.595,33.162-105.778,35.761-163.238,33.288,7.848-25.31,16.238-49.138,22.524-73.509,6.884-26.687,11.659-53.913,17.772-80.809,1.024-4.506,3.13-9.791,6.5-12.585,40.369-33.449,77.946-69.651,111.045-110.389.829-1.021,1.811-1.916,4.306-4.528,9.631,17.431,19.429,33.825,27.936,50.865,13.466,26.973,22.786,55.346,24.88,85.685C944.166,723.952,928.8,762.709,889.211,789.181Z" fill="url(#a)"/><path d="M525.809,626.143c55.871-5.022,100.787-55.238,101.423-113.922A110.147,110.147,0,0,0,606.2,445.752c-6.913-9.7-16.582-11.893-24.948-6.006-8.133,5.723-9.454,14.981-3.495,24.7,1.043,1.7,2.249,3.3,3.3,5,19.221,31.2,14.8,71.921-10.718,98.734-25,26.275-65.368,32.363-97.3,14.675a81.2,81.2,0,0,1-39.351-91.12c8.349-33.349,39.775-60.357,77.419-61.065,12.044-.226,18.608-8.112,17.74-18.281-.864-10.116-8.7-15.983-20.621-15.436-62.415,2.861-109.9,51.436-111.314,117.011.479,4.431.717,12.151,2.215,19.619C411.157,593.576,463.536,631.741,525.809,626.143Z" fill="url(#a)"/></g></svg>